<?xml version="1.0" encoding="UTF-8"?>
<svg width="1920px" height="1390px" viewBox="0 0 1920 1390" version="1.1" xmlns="http://www.w3.org/2000/svg" xmlns:xlink="http://www.w3.org/1999/xlink">
    <title>Naname Copy</title>
    <g id="Naname-Copy" stroke="none" stroke-width="1" fill="none" fill-rule="evenodd">
        <rect fill="#000000" x="0" y="0" width="1920" height="1390"></rect>
        <polygon id="Path" fill="#FFFFFF" fill-rule="nonzero" points="735.515 1356.23986 748.072459 1368.79732 746.649827 1370.24731 734.092368 1357.68985 728.894291 1357.60777 722 1364.52942 747.443218 1390 751.765829 1385.67739 730.617864 1364.50207 732.040496 1363.07943 739.782894 1370.82183 751.163947 1377.60669 755.431841 1373.31144 748.619625 1361.90303 740.904585 1354.21535 742.327216 1352.76536 763.502539 1373.94068 767.825151 1369.61807 742.354574 1344.14749 735.460283 1351.06914"></polygon>
        <path d="M1024.88373,1061.61834 L1024.88373,1066.35132 C1024.88373,1066.35132 1047.97413,1089.44173 1047.97413,1089.44173 L1052.57033,1084.84553 L1047.12602,1079.40123 L1050.79204,1075.73522 L1056.23634,1081.17952 L1060.83253,1076.58333 L1037.74213,1053.49292 L1033.00914,1053.49292 C1033.00914,1053.49292 1024.91109,1061.59098 1024.91109,1061.59098 L1024.88373,1061.61834 Z M1046.19584,1071.16638 L1042.52983,1074.8324 L1031.66859,1063.97115 L1035.3346,1060.30514 L1046.19584,1071.16638 Z" id="Shape" fill="#FFFFFF" fill-rule="nonzero"></path>
        <path d="M872.498002,1214.00406 L872.498002,1218.73705 C872.498002,1218.73705 895.588407,1241.82745 895.588407,1241.82745 L900.184601,1237.23126 L894.740299,1231.78696 L898.406311,1228.12095 L903.850613,1233.56525 L908.446807,1228.96905 L885.356403,1205.87865 L880.623417,1205.87865 C880.623417,1205.87865 872.525361,1213.9767 872.525361,1213.9767 L872.498002,1214.00406 Z M893.810117,1223.55211 L890.144105,1227.21812 L879.28286,1216.35688 L882.948872,1212.69086 L893.810117,1223.55211 Z" id="Shape" fill="#FFFFFF" fill-rule="nonzero"></path>
        <path d="M753.352611,1333.14945 L753.352611,1337.88244 C753.352611,1337.88244 776.443015,1360.97284 776.443015,1360.97284 L781.039209,1356.37665 L775.594908,1350.93235 L779.26092,1347.26634 L784.705221,1352.71064 L789.301415,1348.11444 L766.211011,1325.02404 L761.478025,1325.02404 C761.478025,1325.02404 753.379969,1333.1221 753.379969,1333.1221 L753.352611,1333.14945 Z M774.664725,1342.6975 L770.998713,1346.36351 L760.137469,1335.50227 L763.803481,1331.83626 L774.664725,1342.6975 Z" id="Shape" fill="#FFFFFF" fill-rule="nonzero"></path>
        <path d="M1067.8089,1018.72053 L1067.8089,1023.45351 C1067.8089,1023.45351 1090.8993,1046.54392 1090.8993,1046.54392 L1095.4955,1041.94772 L1090.0512,1036.50342 L1093.71721,1032.83741 L1099.16151,1038.28171 L1103.7577,1033.68551 L1080.6673,1010.59511 L1075.93431,1010.59511 C1075.93431,1010.59511 1067.83626,1018.69317 1067.83626,1018.69317 L1067.8089,1018.72053 Z M1089.12101,1028.26857 L1085.455,1031.93458 L1074.59376,1021.07334 L1078.25977,1017.40733 L1089.12101,1028.26857 Z" id="Shape" fill="#FFFFFF" fill-rule="nonzero"></path>
        <polygon id="Path" fill="#FFFFFF" fill-rule="nonzero" points="786.64766 1299.88176 781.641092 1304.88833 785.69012 1318.12975 777.044897 1309.48453 772.448703 1314.05336 797.919279 1339.52394 802.515474 1334.92774 795.074016 1327.45893 793.487235 1322.23349 795.648541 1320.07219 806.509785 1330.93343 811.10598 1326.33724 798.001354 1313.25997 793.268369 1313.25997 791.325929 1315.20241 791.189138 1314.79204"></polygon>
        <polygon id="Path" fill="#FFFFFF" fill-rule="nonzero" points="833.950159 1276.68193 817.480463 1269.0216 812.856911 1273.67251 838.300129 1299.14309 842.896323 1294.5469 827.165301 1278.84323 843.935938 1286.66771 847.355726 1290.08749 851.924562 1285.4913 826.481344 1260.04808 821.885149 1264.61692"></polygon>
        <polygon id="Path" fill="#FFFFFF" fill-rule="nonzero" points="1095.93323 990.568836 1107.99824 1002.63385 1091.52854 994.973522 1086.90499 999.624433 1112.37557 1025.06765 1116.9444 1020.49881 1101.24074 1004.76779 1117.98402 1012.61962 1121.40381 1016.03941 1126 1011.44322 1100.52942 986"></polygon>
        <polygon id="Path" fill="#FFFFFF" fill-rule="nonzero" points="986.335884 1124.2962 969.866188 1116.66324 965.215277 1121.28679 990.685854 1146.75736 995.282048 1142.16117 979.551026 1126.45751 996.321663 1134.28198 999.741451 1137.70177 1004.31029 1133.13293 978.83971 1107.66236 974.270874 1112.25855"></polygon>
        <polygon id="Path" fill="#FFFFFF" fill-rule="nonzero" points="798.247579 1297.44687 801.530575 1294.16388 817.836121 1310.44207 814.525767 1313.75242 819.121961 1318.32126 830.284147 1307.15907 825.715311 1302.56288 822.404957 1305.87323 806.126769 1289.56768 809.409765 1286.28469 804.813571 1281.68849 793.651385 1292.85068"></polygon>
        <polygon id="Path" fill="#FFFFFF" fill-rule="nonzero" points="950.605946 1145.06115 953.9163 1141.77815 970.194488 1158.05634 966.911492 1161.3667 971.507686 1165.93553 982.669872 1154.77335 978.073678 1150.20451 974.790682 1153.48751 958.485136 1137.18196 961.79549 1133.89896 957.199296 1129.30277 946.03711 1140.49231"></polygon>
        <polygon id="Path" fill="#FFFFFF" fill-rule="nonzero" points="917.037313 1178.65714 921.797657 1173.86944 942.699397 1194.74382 947.268233 1190.17498 926.393851 1169.3006 931.181553 1164.5129 926.585359 1159.91671 912.441119 1174.06095"></polygon>
        <polygon id="Path" fill="#FFFFFF" fill-rule="nonzero" points="837.47938 1249.05004 837.47938 1253.78303 858.189612 1274.49326 862.949956 1274.49326 873.400826 1264.04239 858.846211 1249.48778 852.608519 1255.72547 857.204713 1260.2943 858.846211 1258.65281 864.235796 1264.04239 860.569784 1267.7084 844.264238 1251.40286 847.93025 1247.73685 851.049096 1250.85569 855.617932 1246.28686 850.310422 1240.95199 845.577436 1240.95199"></polygon>
        <polygon id="Path" fill="#FFFFFF" fill-rule="nonzero" points="1001.05465 1085.47477 1005.62348 1090.04361 1013.88569 1081.80876 1030.16388 1098.08695 1026.52523 1101.75296 1018.56396 1093.7917 1013.96777 1098.38789 1024.14505 1108.56518 1028.87804 1108.56518 1036.9761 1100.46712 1036.9761 1095.73414 1016.2385 1074.99655 1011.50552 1074.99655"></polygon>
        <path d="M920.730683,1198.38247 L906.805309,1184.4571 L902.072323,1184.4571 C902.072323,1184.4571 891.621453,1194.90797 891.621453,1194.90797 L917.09203,1220.37855 L921.688224,1215.78235 L914.903366,1208.99749 L916.517505,1207.38335 L916.681655,1207.46543 L926.010835,1211.4871 L930.935329,1206.56261 L920.758042,1202.18528 L920.758042,1198.40983 L920.730683,1198.38247 Z M913.945825,1200.76265 L910.279813,1204.42866 L900.786483,1194.93533 L904.452495,1191.26932 L913.945825,1200.76265 Z" id="Shape" fill="#FFFFFF" fill-rule="nonzero"></path>
        <path d="M1043.97982,1042.5496 L1069.4504,1068.02018 L1074.04659,1063.42399 L1068.60229,1057.97968 L1074.48432,1052.09765 L1074.48432,1047.36466 C1074.48432,1047.36466 1059.21839,1032.09873 1059.21839,1032.09873 L1054.48541,1032.09873 C1054.48541,1032.09873 1044.03454,1042.5496 1044.03454,1042.5496 L1043.97982,1042.5496 Z M1067.67211,1049.74484 L1064.00609,1053.41085 L1053.14485,1042.5496 L1056.81086,1038.88359 L1067.67211,1049.74484 Z" id="Shape" fill="#FFFFFF" fill-rule="nonzero"></path>
        <path d="M1173.3827,819.543782 L1173.3827,848.740918 C1173.3827,848.740918 1187.95254,863.325803 1187.95254,863.325803 L1202.52238,863.325803 L1202.52238,877.910689 C1202.52238,877.910689 1202.52238,877.910689 1202.52238,877.910689 L1217.09222,892.495575 L1246.25924,892.495575 C1246.25924,892.495575 1260.82908,877.910689 1260.82908,877.910689 L1260.82908,848.713554 C1260.82908,848.713554 1246.25924,834.128668 1246.25924,834.128668 L1246.25924,834.128668 C1246.25924,834.128668 1231.6894,834.128668 1231.6894,834.128668 L1231.6894,819.543782 C1231.6894,819.543782 1202.52238,790.346646 1202.52238,790.346646 L1173.35536,819.543782 L1173.3827,819.543782 Z M1246.25924,863.325803 L1231.6894,877.910689 L1217.11956,863.325803 L1231.6894,848.740918 L1246.25924,863.325803 Z M1217.11956,834.156032 L1202.54971,848.740918 L1187.97987,834.156032 L1202.54971,819.571146 L1217.11956,834.156032 Z M1120.40643,872.602119 L1120.40643,901.799255 C1120.40643,901.799255 1134.97627,916.384141 1134.97627,916.384141 L1164.14329,916.384141 C1164.14329,916.384141 1178.71313,901.799255 1178.71313,901.799255 L1193.28297,916.384141 L1164.11595,945.581276 L1193.28297,945.581276 C1193.28297,945.581276 1207.85281,930.99639 1207.85281,930.99639 L1207.85281,901.799255 C1207.85281,901.799255 1149.54611,843.432347 1149.54611,843.432347 L1120.37909,872.629483 L1120.40643,872.602119 Z M1164.14329,887.187005 L1149.57345,901.771891 L1135.0036,887.187005 L1149.57345,872.602119 L1164.14329,887.187005 Z M1082,940.217979 L1096.56984,925.633093 L1154.87654,984 L1154.87654,954.802864 C1154.87654,954.802864 1096.56984,896.435957 1096.56984,896.435957 L1082,911.020843 L1082,940.217979 Z M1294.91649,697.911854 L1324.08351,697.911854 C1324.08351,697.911854 1338.65335,683.326968 1338.65335,683.326968 L1353.22319,697.911854 L1338.65335,712.49674 L1338.65335,712.49674 C1338.65335,712.49674 1338.65335,741.666511 1338.65335,741.666511 L1353.22319,756.251397 L1382.39021,756.251397 C1382.39021,756.251397 1411.55722,727.054262 1411.55722,727.054262 L1382.39021,727.054262 C1382.39021,727.054262 1367.82037,741.639148 1367.82037,741.639148 L1353.25053,727.054262 L1367.82037,712.469376 L1367.82037,683.27224 C1367.82037,683.27224 1353.25053,668.687354 1353.25053,668.687354 L1324.08351,668.687354 C1324.08351,668.687354 1294.91649,697.88449 1294.91649,697.88449 L1294.91649,697.911854 Z M1409.1517,612.755822 L1423.72154,598.170936 L1482.02824,656.537844 L1482.02824,627.340708 C1482.02824,627.340708 1423.72154,568.973801 1423.72154,568.973801 L1409.1517,583.558687 L1409.1517,612.755822 Z M1449.52628,543.169772 L1449.52628,572.366907 C1449.52628,572.366907 1493.26314,616.148929 1493.26314,616.148929 L1522.43016,616.148929 C1522.43016,616.148929 1537,601.564043 1537,601.564043 L1537,572.366907 C1537,572.366907 1478.6933,514 1478.6933,514 L1449.52628,543.197136 L1449.52628,543.169772 Z M1522.40282,586.951793 L1507.83298,601.536679 L1464.09612,557.754658 L1478.66597,543.169772 L1522.40282,586.951793 Z M1361.50586,631.28109 L1361.50586,660.478225 C1361.50586,660.478225 1405.24272,704.260247 1405.24272,704.260247 L1434.40973,704.260247 C1434.40973,704.260247 1448.97957,689.675361 1448.97957,689.675361 L1448.97957,660.478225 C1448.97957,660.478225 1390.67287,602.111318 1390.67287,602.111318 L1361.50586,631.308454 L1361.50586,631.28109 Z M1434.3824,675.063111 L1419.81256,689.647997 L1376.0757,645.865976 L1390.64554,631.28109 L1434.3824,675.063111 Z M1225.40222,767.525268 L1225.40222,796.722403 C1225.40222,796.722403 1239.97206,811.307289 1239.97206,811.307289 L1269.13908,811.307289 C1269.13908,811.307289 1283.70892,796.722403 1283.70892,796.722403 L1298.27876,811.307289 L1269.11175,840.504425 L1298.27876,840.504425 C1298.27876,840.504425 1312.8486,825.919539 1312.8486,825.919539 L1312.8486,796.722403 C1312.8486,796.722403 1254.5419,738.355496 1254.5419,738.355496 L1225.37489,767.552632 L1225.40222,767.525268 Z M1269.13908,782.110154 L1254.56924,796.69504 L1239.9994,782.110154 L1254.56924,767.525268 L1269.13908,782.110154 Z M1307.54551,772.861202 L1329.41394,750.970191 L1314.8441,736.385305 L1292.97567,758.276316 L1307.54551,772.861202 Z" id="Shape" fill="#FFFFFF" fill-rule="nonzero"></path>
        <path d="M713.815472,1355 L739.929189,1328.87088 L701.113717,1290.03251 L675,1316.16163 L713.815472,1355 Z M684.778986,1315.615 L700.59472,1299.78993 L712.832111,1312.03454 L697.016376,1327.85961 L684.778986,1315.615 Z M701.46882,1332.31468 L717.284554,1316.48961 L730.177519,1329.39018 L714.361784,1345.21525 L701.46882,1332.31468 Z" id="Shape" fill="#FFFFFF" fill-rule="nonzero"></path>
        <path d="M892.350255,1147.96225 C888.71728,1142.82388 886.996397,1134.95235 886.395454,1131.2899 L877.709092,1139.98139 C874.513167,1135.38966 871.426503,1132.62915 869.377833,1131.01658 L861.620202,1138.77879 L856.949234,1134.10507 L852.387528,1138.66946 L857.058496,1143.34319 L853.37089,1147.03297 L857.413599,1151.07806 L861.101205,1147.38828 L880.795755,1167.09445 C881.01428,1169.035 881.178174,1171.05755 881.232805,1173.27142 L886.832504,1178.87442 L886.941766,1178.87442 C887.023713,1176.9612 887.051028,1175.10264 887.051028,1173.32608 L891.257631,1177.53516 L895.819337,1172.97077 L886.368138,1163.51399 C885.330145,1155.72445 883.25416,1149.62948 880.823071,1145.01042 L882.953688,1142.87855 C883.855103,1145.58439 885.357461,1149.13751 887.843181,1152.47198 C891.312263,1157.11837 897.212433,1161.92875 906.690947,1162.09274 L913.000852,1155.77912 C902.320451,1157.63767 896.037862,1153.12794 892.404887,1148.01691 L892.350255,1147.96225 Z M875.004847,1147.30629 C876.206734,1149.49282 877.435936,1152.28066 878.473929,1155.61513 L865.662911,1142.79655 L869.159308,1139.29809 C870.634351,1140.80134 872.846915,1143.42518 874.977532,1147.30629 L875.004847,1147.30629 Z" id="Shape" fill="#FFFFFF" fill-rule="nonzero"></path>
        <path d="M1085.22573,975.116471 C1084.57016,975.772432 1083.72337,975.799764 1083.25901,975.335125 L1079.70798,971.782002 L1083.20438,968.283542 L1052.93869,938 L1036.79517,954.153045 L1067.06085,984.436586 L1069.2461,982.250049 C1071.18551,986.131153 1072.7425,991.734155 1071.70451,996.899849 L1078.09636,990.504228 C1077.87783,985.61185 1076.12963,980.965458 1074.02633,977.466999 L1075.39211,976.100413 L1080.39087,981.102117 C1082.60343,983.315986 1086.01788,982.57803 1089.32307,979.24356 L1092,976.565052 L1087.87534,972.437963 L1085.19841,975.116471 L1085.22573,975.116471 Z M1074.27217,968.310874 L1067.08817,975.499115 L1062.63573,971.044045 L1069.81973,963.855804 L1074.27217,968.310874 Z M1066.13212,960.166022 L1058.94812,967.354264 L1054.22252,962.625877 L1061.40652,955.437635 L1066.13212,960.166022 Z M1057.25455,951.283214 L1050.07055,958.471456 L1045.75468,954.153045 L1052.93869,946.964803 L1057.25455,951.283214 Z" id="Shape" fill="#FFFFFF" fill-rule="nonzero"></path>
        <path d="M1065.9136,986.267811 L1059.11201,979.462214 C1059.54906,981.430098 1059.76759,983.507308 1059.84953,985.557187 L1051.16317,976.865701 L1054.33178,973.695222 L1049.90666,969.267484 L1046.73805,972.437963 L1037.06832,962.762535 L1040.23693,959.592056 L1035.8118,955.164318 L1024.66704,966.315658 L1029.09217,970.743396 L1032.26078,967.572917 L1041.9305,977.248345 L1038.76189,980.418824 L1043.18702,984.846562 L1046.35563,981.676083 L1059.30322,994.631317 C1059.00275,996.817854 1058.62033,998.840401 1058.26523,1000.42564 L1063.20935,1005.37268 C1063.94688,1002.8035 1066.02286,994.822639 1065.88628,986.24048 L1065.9136,986.267811 Z" id="Path" fill="#FFFFFF" fill-rule="nonzero"></path>
        <path d="M1035.59328,1005.91932 L1037.34148,1013.62686 C1033.29877,1012.4516 1029.91163,1010.75703 1027.31665,1008.9258 L1037.80584,998.430425 L1033.73582,994.358 L1022.12669,1005.97398 L1018.71224,1002.55751 L1030.32137,990.941535 L1026.25134,986.869109 L1014.64221,998.485089 L1011.22776,995.068624 L1022.83689,983.452645 L1018.76687,979.380219 L1007.15774,990.996198 L1002.1863,986.021826 L997.187541,991.02353 L1002.15898,995.997903 L990.549849,1007.61388 L994.619874,1011.68631 L1006.22901,1000.07033 L1009.64346,1003.48679 L998.034325,1015.10277 L1002.10435,1019.1752 L1013.71348,1007.55922 L1017.12793,1010.97568 L1005.5188,1022.59166 L1009.58882,1026.66409 L1014.80611,1021.44373 C1015.78947,1024.75087 1016.30846,1028.49531 1016.03531,1033.11437 L1021.63501,1038.71738 C1022.23595,1036.50351 1022.50911,1034.23497 1022.59105,1031.99377 L1029.61116,1039.01802 L1031.63252,1036.99548 C1036.79517,1031.82978 1036.87711,1025.27017 1035.34744,1019.74916 C1039.06236,1020.73311 1043.02312,1021.36174 1047.0112,1021.60772 L1053.485,1015.1301 C1050.04323,1015.40342 1046.84731,1015.32143 1043.86991,1014.96611 L1040.64667,1000.86295 L1035.56596,1005.94665 L1035.59328,1005.91932 Z M1029.41995,1030.32654 L1021.93548,1022.83765 C1021.47111,1020.2958 1020.84285,1017.99993 1020.18728,1016.08671 L1022.42716,1013.84551 C1024.12073,1015.10277 1026.0055,1016.19604 1028.05417,1017.15265 C1029.96626,1021.00642 1031.35936,1026.39077 1029.39264,1030.35387 L1029.41995,1030.32654 Z" id="Shape" fill="#FFFFFF" fill-rule="nonzero"></path>
        <path d="M905.543692,1110.81844 L910.569763,1113.22364 L916.142146,1107.64796 C917.67182,1109.17854 919.802437,1112.0757 919.747806,1116.01147 L925.019717,1110.73645 C924.090987,1107.29265 922.151579,1104.77813 920.567274,1103.22023 C919.365387,1102.01763 917.617189,1100.73304 916.333355,1100.02242 L905.543692,1110.81844 L905.543692,1110.81844 Z" id="Path" fill="#FFFFFF" fill-rule="nonzero"></path>
        <path d="M930.428206,1126.34286 C927.041072,1124.94894 924.036355,1122.7624 922.233525,1121.06784 L917.781082,1125.52291 C919.96633,1127.57279 924.145618,1130.27863 926.822547,1131.48122 C929.66337,1132.76581 932.422246,1133.47644 935.044543,1133.6131 L942.392441,1126.26086 C938.73215,1128.55673 934.307022,1127.9281 930.428206,1126.31553 L930.428206,1126.34286 Z" id="Path" fill="#FFFFFF" fill-rule="nonzero"></path>
        <path d="M901.910717,1098.49184 L895.518865,1104.88746 C893.743351,1103.1109 892.131731,1101.58032 890.76595,1100.29573 L885.931089,1105.13345 C887.296869,1106.39071 888.908489,1107.92128 890.684004,1109.72518 L884.756518,1115.65616 L888.744596,1119.64659 L894.562819,1113.82493 C902.047295,1121.99712 911.389231,1133.99574 919.201494,1149.54749 L924.145618,1144.60045 C916.169462,1129.0487 906.909472,1117.1594 899.424997,1108.98722 L905.92611,1102.48227 L901.938032,1098.49184 L901.910717,1098.49184 Z" id="Path" fill="#FFFFFF" fill-rule="nonzero"></path>
        <path d="M832.392506,1158.67628 L827.967378,1163.10402 L832.638347,1167.77774 L823.815407,1176.60589 L827.803485,1180.59632 L836.626425,1171.76817 L840.614503,1175.7586 L831.791563,1184.58675 L835.779641,1188.57718 L844.602581,1179.74903 L849.901808,1185.05139 C848.836499,1185.98066 848.071663,1186.77328 847.798506,1187.10126 C844.684528,1190.32641 844.466003,1195.35544 846.979038,1198.25261 C850.174964,1201.94239 854.490829,1206.1788 859.434953,1205.93282 C861.729464,1205.82349 863.942028,1204.75755 865.826805,1202.87167 C867.165269,1201.53241 868.148631,1199.72852 868.230578,1198.06128 C868.33984,1195.71076 867.110638,1193.3329 865.280493,1191.611 L859.434953,1185.76201 C862.521617,1184.66874 866.29117,1184.47742 871.26261,1185.89867 L864.597603,1179.22973 C860.718787,1179.39372 857.741386,1180.15901 855.146404,1181.47093 L849.000393,1175.3213 L855.009826,1169.30832 L851.021748,1165.31789 L845.012315,1171.33086 L841.024237,1167.34043 L847.03367,1161.32746 L843.045592,1157.33703 L837.036159,1163.35 L832.365191,1158.67628 L832.392506,1158.67628 Z M861.729464,1198.58059 C861.019258,1199.5372 860.254422,1199.56453 859.790056,1199.56453 C857.386283,1199.67385 853.944517,1196.58537 851.8139,1193.8522 C851.158326,1193.00492 851.294904,1191.77499 852.059741,1190.79105 C852.524106,1190.18975 853.261627,1189.50646 853.971833,1189.06915 L860.800734,1195.90208 C861.866042,1196.91335 862.275776,1197.84263 861.75678,1198.55325 L861.729464,1198.58059 Z" id="Shape" fill="#FFFFFF" fill-rule="nonzero"></path>
        <path d="M778.334927,1231.73396 L773.090331,1226.48627 L753.231888,1246.35643 L757.547753,1250.67484 L772.025023,1236.18903 L772.35281,1236.51701 C773.090331,1246.87573 776.395519,1259.20233 788.004651,1267.7025 C790.572318,1269.58839 793.41314,1271.11896 796.472488,1272.32156 L802.181449,1266.60923 C798.766999,1265.48863 795.65302,1263.93072 792.894144,1261.93551 C781.885956,1253.92731 779.12708,1243.70525 778.307612,1231.78862 L778.334927,1231.73396 Z" id="Path" fill="#FFFFFF" fill-rule="nonzero"></path>
        <path d="M797.373903,1239.08619 L793.522403,1242.93996 C795.598389,1245.18116 798.876261,1247.31304 803.383336,1248.54296 L807.589938,1244.33388 C803.301389,1243.45926 799.613782,1241.51871 797.373903,1239.08619 Z" id="Path" fill="#FFFFFF" fill-rule="nonzero"></path>
        <path d="M791.528364,1244.90785 L787.676864,1248.76162 C789.3158,1250.64751 792.320516,1253.35335 797.100747,1254.80193 L801.30735,1250.59284 C796.691013,1249.36292 793.331194,1247.09438 791.528364,1244.90785 Z" id="Path" fill="#FFFFFF" fill-rule="nonzero"></path>
        <path d="M833.375868,1226.86891 L822.394995,1215.88156 L830.808201,1207.46339 L826.65623,1203.30897 L818.243024,1211.72714 L808.983034,1202.46169 L819.035176,1192.40362 L814.746626,1188.11254 L804.694484,1198.17061 L797.483165,1190.95504 L792.593672,1195.84741 L799.804991,1203.06299 L794.751605,1208.11936 C792.539041,1205.57751 789.56164,1202.57102 788.277807,1201.34109 L783.360998,1206.2608 C787.676864,1210.38789 796.800275,1220.3913 797.428534,1226.78692 L802.91897,1221.29324 C802.072187,1218.72406 800.597144,1215.93623 798.493843,1212.92974 L804.066226,1207.35407 L813.326215,1216.61952 L804.913009,1225.03769 L809.064981,1229.19211 L817.478187,1220.77394 L828.459059,1231.76129 L817.751343,1242.47532 L822.012577,1246.73907 L848.344819,1220.3913 L844.083584,1216.12755 L833.375868,1226.84158 L833.375868,1226.86891 Z" id="Path" fill="#FFFFFF" fill-rule="nonzero"></path>
        <polygon id="Path" fill="#FFFFFF" fill-rule="nonzero" points="977.6842 1024.09491 972.002555 1029.75257 965.282916 1023.0563 960.885104 1027.42938 967.604743 1034.15298 962.305516 1039.45533 966.266278 1043.41843 971.565505 1038.11608 1001.03904 1067.607 1005.43685 1063.20659 975.963317 1033.743 981.644963 1028.05801"></polygon>
        <polygon id="Rectangle" fill="#FFFFFF" fill-rule="nonzero" transform="translate(992.713283, 1044.507090) rotate(-45.000000) translate(-992.713283, -1044.507090) " points="990.010694 1036.18783 995.420779 1036.18624 995.415872 1052.82635 990.005787 1052.82794"></polygon>
        <path d="M982.983427,1035.79288 L986.998821,1031.77512 L1004.86323,1049.65006 C1006.88458,1051.67261 1006.14706,1054.51511 1003.49745,1057.16628 L1003.14234,1057.5216 L1007.13042,1061.51203 L1007.51284,1061.12938 C1012.48428,1056.15501 1013.82274,1049.89605 1009.42493,1045.49564 L991.369317,1027.42938 L991.997576,1026.80075 L988.064129,1022.86498 L979.077296,1031.85711 L983.010743,1035.79288 L982.983427,1035.79288 Z" id="Path" fill="#FFFFFF" fill-rule="nonzero"></path>
        <polygon id="Path" fill="#FFFFFF" fill-rule="nonzero" points="975.799424 1024.64154 969.243679 1019.0932 965.88386 1022.455 972.685445 1027.75736"></polygon>
        <polygon id="Rectangle" fill="#FFFFFF" fill-rule="nonzero" transform="translate(976.306359, 1017.664206) rotate(-45.000000) translate(-976.306359, -1017.664206) " points="971.716786 1014.94686 980.897536 1014.94415 980.895932 1020.38156 971.715183 1020.38426"></polygon>
        <path d="M978.36709,1047.08088 L974.351697,1051.09864 L982.874165,1059.62614 C986.698349,1063.31592 992.707782,1070.14885 994.237456,1074.30327 L974.542906,1054.5971 C973.013232,1050.25136 970.390934,1046.42492 967.276955,1043.63708 L962.988406,1047.92816 C962.660618,1041.36855 959.573955,1036.50351 957.088235,1033.63368 L952.553845,1038.17074 C955.667824,1041.61454 957.170182,1044.81235 956.86971,1048.69345 L962.469409,1054.29645 C962.933774,1052.10992 963.070352,1050.08737 962.988406,1048.20148 C966.839906,1052.05525 969.380257,1056.26434 969.653413,1061.51203 L975.498952,1067.36101 C975.690161,1066.45907 975.772108,1065.55712 975.826739,1064.65517 L989.948906,1078.78567 L998.49869,1070.23084 C995.193502,1063.83522 987.818289,1056.61965 986.834927,1055.66304 L978.339775,1047.16288 L978.36709,1047.08088 Z" id="Path" fill="#FFFFFF" fill-rule="nonzero"></path>
        <path d="M749.626228,1260.13161 L745.173785,1255.67654 L733.346129,1267.51118 L727.172802,1261.33421 L722.283309,1266.22658 L728.456636,1272.40355 L716.628979,1284.23819 L721.081423,1288.69326 L726.62649,1283.14492 C729.767785,1286.8347 740.748657,1300.85587 746.211778,1322.61192 L751.511005,1317.30956 C750.60959,1314.11175 749.626228,1311.10526 748.56092,1308.2901 L756.427813,1300.41856 L762.409931,1306.40421 L767.299424,1301.51183 L761.317306,1295.52618 L769.1842,1287.65465 C772.025023,1288.72059 775.029739,1289.73186 778.198349,1290.60648 L783.497576,1285.30412 C761.754356,1279.83778 747.741452,1268.87776 744.053845,1265.70728 L749.598913,1260.15894 L749.626228,1260.13161 Z M752.467051,1296.37347 L746.266409,1302.57777 C740.366239,1289.18523 733.537338,1280.84905 731.379405,1278.3892 L732.936395,1276.83129 L752.467051,1296.37347 L752.467051,1296.37347 Z M757.356544,1291.48109 L737.825888,1271.93891 L739.382877,1270.38101 C741.841281,1272.54021 750.17254,1279.37314 763.557186,1285.27679 L757.356544,1291.48109 L757.356544,1291.48109 Z" id="Shape" fill="#FFFFFF" fill-rule="nonzero"></path>
        <path d="M951.106118,1084.19735 L959.710533,1075.58786 L955.640508,1071.51544 L947.036093,1080.12493 L944.523058,1077.61041 L953.318682,1068.8096 L949.248657,1064.73717 L940.453033,1073.53798 L937.939997,1071.02346 L948.893554,1060.06345 L944.823529,1055.99102 L938.868728,1061.94933 C937.666841,1059.02484 935.782065,1055.96369 934.4436,1053.99581 L929.799948,1058.6422 C931.930565,1061.94933 933.624132,1065.33847 933.924604,1066.89638 L928.761955,1072.06207 C927.204965,1071.76142 923.81783,1070.06685 920.512642,1067.93498 L915.86899,1072.58137 C917.835713,1073.92063 920.895061,1075.80652 923.81783,1077.00911 L917.863029,1082.96742 L921.933054,1087.03985 L932.886611,1076.07983 L935.399646,1078.59435 L926.604022,1087.39516 L930.674047,1091.46759 L939.469671,1082.66678 L941.982707,1085.18129 L933.378292,1093.79078 L937.448317,1097.86321 L946.052732,1089.25372 L948.565767,1091.76824 L936.519586,1103.82152 L940.589611,1107.89395 L947.609721,1100.8697 C950.313966,1106.03539 951.051487,1110.76378 951.925586,1116.69476 L957.771125,1110.84578 C956.924342,1105.76208 955.804402,1100.97903 952.745054,1095.704 L957.552601,1090.89362 C962.824512,1093.92744 967.577427,1095.07538 972.685445,1095.92266 L978.530984,1090.07367 C972.603498,1089.19906 967.877899,1088.4611 962.71525,1085.75526 L969.73536,1078.73101 L965.665335,1074.65858 L953.619154,1086.71187 L951.106118,1084.19735 L951.106118,1084.19735 Z" id="Path" fill="#FFFFFF" fill-rule="nonzero"></path>
        <path d="M769,686 L703,686 L736,718 L769,686 L769,686 Z M812.782235,723.683805 L781.021649,692 L736.611589,736.302699 L681.386501,706.940553 L643,745.234254 L698.225088,774.596401 L666.108564,806.635283 L697.86915,838.319087 L739.650748,796.638496 L862.613499,862 L901,823.706298 L778.037249,758.344794 L812.754855,723.711118 L812.782235,723.683805 Z M652.900485,819.865662 L633.406438,755 L598,790.309387 L637.425548,921.540339 L667.391151,891.656873 L749.960606,974 L784,940.053909 L658.177275,814.576071 L652.873144,819.865662 L652.900485,819.865662 Z M890.671378,603.20235 L888.499163,601 L806.253673,684.386463 L804,686.671401 L874.352613,758 L898.301283,733.719095 L898.301283,676.815886 L876.660591,654.874978 L886.978613,644.413817 L950,708.309486 L950,663.354024 L950,663.354024 C950,663.354024 890.698531,603.229879 890.698531,603.229879 L890.698531,603.229879 L890.671378,603.20235 Z M867,712.972239 L844,689.486119 L858.51773,674.661548 L867,666 L867,713 L867,712.972239 Z M443.033089,966 L384,1025.03309 L526.966911,1168 L586,1108.96691 L443.033089,966 Z M464.309091,1061 L433,1029.69091 L446.690909,1016 L478,1047.30909 L464.309091,1061 Z M522.309091,1119 L491,1087.69091 L504.690909,1074 L536,1105.30909 L522.309091,1119 Z M569,1076 L642,1076 L605.5,1039 L569,1076 Z M667.165349,955.368618 L639.327822,927.447541 L615.287563,951.559953 L603.540618,939.777752 L627.580877,915.66534 L599.74335,887.744262 L557.071891,930.543794 L546.281093,919.720609 L588.952552,876.921077 L561.115025,849 L518.443566,891.799532 L508.33573,881.661358 L477.793674,912.295082 L487.90151,922.433255 L449,961.451522 L476.837527,989.3726 L515.739037,950.354333 L526.529835,961.177518 L487.628325,1000.19578 L515.465852,1028.11686 L568.873472,974.548946 L580.620417,986.331148 L527.212797,1039.89906 L555.050324,1067.82014 L608.457944,1014.25222 L677,1083 L677,1013.48501 L677,1013.48501 C677,1013.48501 643.12509,979.508431 643.12509,979.508431 L667.165349,955.396019 L667.165349,955.368618 Z M845,581.158794 L912.285397,581.158794 L971.177263,522.553287 L971.177263,754 L1018,707.404937 L1018,409 L845,581.158794 L845,581.158794 Z M1474.09653,125.211257 L1440.30133,158.846437 L1469.05329,187.462256 L1425.96646,230.345065 L1425.96646,0 L1376,49.7298738 L1376,348 L1537,187.789606 L1474.12394,125.211257 L1474.09653,125.211257 Z M1129.3788,296 L1091,334.227729 L1172.58927,415.495834 L1172.58927,552 L1220,504.775903 L1220,386.264473 L1220,386.264473 C1220,386.264473 1129.3788,296 1129.3788,296 L1129.3788,296 Z M1124,434.746184 L1058.50213,369 L1022,405.640509 L1123.9729,508 L1123.9729,434.746184 L1124,434.746184 Z M1288.539,138 L1136,289.869813 L1205.02465,289.869813 L1241.5365,253.518141 L1241.5365,483 L1288.56639,436.176429 L1288.56639,359.082523 L1366,359.082523 L1366,307.568414 L1288.56639,307.568414 L1288.56639,138 L1288.539,138 Z M1320,105 L1288,138 L1320,171 L1320,105.027431 L1320,105 Z M1354,72 L1322,105 L1354,138 L1354,72.0274314 L1354,72 Z" id="Shape" fill="#FFFFFF" fill-rule="nonzero"></path>
        <path d="M1537,393.996091 L1537,393.996091 C1537,393.996091 1442,299 1442,299 L1442,337.003909 L1442,337.003909 C1442,337.003909 1537,432 1537,432 L1537,393.996091 L1537,393.996091 Z M728.993158,1087.02736 L710,1106.01642 L767.006842,1163.01094 L786,1182 L786,1143.99453 C786,1143.99453 728.993158,1087 728.993158,1087 L728.993158,1087.02736 Z M691,1049 L691,1087 C691,1087 710,1068.01368 710,1068.01368 L691,1049.02736 L691,1049 Z M1108.01095,708.015635 L1089.01642,727.003909 L1051,689 L1051,727.003909 L1069.99453,745.992183 L1069.99453,783.996091 L1088.98905,765.007817 L1146,822 L1146,783.996091 L1107.98358,745.992183 L1107.98358,707.988274 L1108.01095,708.015635 Z M1033.98358,821 L1033.98358,782.986316 L1014.98905,801.979474 L995.994526,782.986316 L995.994526,782.986316 C995.994526,782.986316 1014.98905,763.993158 1014.98905,763.993158 L995.994526,745 L977,763.993158 L977,802.006842 L1053.00547,878.006842 L1072,897 L1072,858.986316 C1072,858.986316 1033.98358,820.972632 1033.98358,820.972632 L1033.98358,821 Z M778.018243,1076.99453 L797.009121,1058.00547 L797.009121,1058.00547 C797.009121,1058.00547 797.009121,1020 797.009121,1020 L759,1058.00547 L759,1096.01094 L777.990879,1115 L816,1076.99453 L777.990879,1076.99453 C777.990879,1076.99453 777.990879,1076.99453 777.990879,1076.99453 L778.018243,1076.99453 Z M816.018243,1076.99316 L816.018243,1076.99316 C816.018243,1076.99316 835.009121,1095.98632 835.009121,1095.98632 L835.009121,1095.98632 C835.009121,1095.98632 835.009121,1095.98632 835.009121,1095.98632 L797,1134 L835.009121,1134 L854,1115.00684 L854,1076.99316 L835.009121,1058 L816.018243,1076.99316 Z M881.986314,935.0152 L881.986314,973.01824 L862.989735,954.0304 L843.993157,973.01824 L843.993157,1011.02128 L824.996578,992.03344 L806,1011.02128 L863.017108,1068.01216 L882.013686,1087 L882.013686,1048.99696 C882.013686,1048.99696 843.993157,1010.99392 843.993157,1010.99392 L862.989735,992.00608 L901.010265,1030.00912 L920.006843,1048.99696 L920.006843,1010.99392 L881.986314,972.99088 L900.982892,954.00304 L939.003422,992.00608 L958,1010.99392 L958,972.99088 L900.982892,916 L881.986314,934.98784 L881.986314,935.0152 Z M1152.00391,664.988274 L1152.00391,702.992183 L1095,646 L1095,684.003909 L1190.01564,779 L1190.01564,740.996091 L1152.00391,702.992183 L1170.99609,684.003909 L1228,740.996091 L1228,702.992183 L1170.99609,646 L1152.00391,664.988274 L1152.00391,664.988274 Z M674,1106.01368 L693,1125 L693,1087 C693,1087 674,1105.98632 674,1105.98632 L674,1106.01368 Z M691.013684,1125.02736 L653,1163.02736 L710.006842,1220.01368 L729,1239 L729,1201 L690.986316,1163 L690.986316,1125 L691.013684,1125.02736 Z M588.009121,1153.02736 L550,1191.02736 L568.990879,1210.01368 L607,1172.01368 L645.009121,1210.01368 L664,1229 L664,1191 L625.990879,1153 L587.981757,1153 L588.009121,1153.02736 Z M607.016422,1210 L569,1210 L587.994526,1228.99453 L645.005474,1286.00547 L664,1305 L664,1266.98358 L645.005474,1247.98905 L664,1228.99453 L625.983578,1228.99453 L606.989052,1210 L607.016422,1210 Z M1360,571 L1379,590 L1398,571 L1379,552 L1360,571 Z M1247.02736,533.027362 L1266.01642,552.016417 L1323.01094,609.010945 L1342,628 L1342,589.994528 L1323.01094,571.005472 L1285.00547,533 L1247,533 L1247.02736,533.027362 Z M1341.04105,552.032844 L1341.04105,514.016422 L1303.02737,476 L1265.01368,476 L1227,514.016422 L1245.99316,533.010948 L1284.00684,494.994526 L1322.02053,533.010948 L1341.01368,552.005474 L1341.01368,552.005474 C1341.01368,552.005474 1360.00684,571 1360.00684,571 L1379,552.005474 L1340.98632,552.005474 L1341.04105,552.032844 Z M1322.01368,571 L1341,552 L1303,552 L1321.98632,571 L1322.01368,571 Z M1426.98358,502.967166 L1407.99453,521.956221 L1407.99453,521.956221 C1407.99453,521.956221 1389.00547,502.967166 1389.00547,502.967166 L1407.99453,483.978111 L1426.98358,464.989055 L1407.99453,446 L1369.98906,446 L1351,464.989055 L1351,502.994528 L1389.00547,541 L1427.01094,541 C1427.01094,541 1427.01094,541 1427.01094,541 L1446,522.010945 L1446,484.005472 L1427.01094,502.994528 L1427.01094,502.994528 L1426.98358,502.967166 Z M1389,502.972642 L1370,483.986321 L1370,483.986321 C1370,483.986321 1389,465 1389,465 L1389,503 L1389,502.972642 Z M1256.00912,637 L1275,618 L1256.00912,599 L1218,599 L1236.99088,618 L1255.98176,637 L1256.00912,637 Z M1274.95622,655.939804 L1255.96717,674.928859 L1255.96717,674.928859 C1255.96717,674.928859 1236.97811,655.939804 1236.97811,655.939804 L1255.96717,636.950749 L1236.97811,617.961694 L1236.97811,655.967166 L1217.98906,636.978111 L1217.98906,636.978111 C1217.98906,636.978111 1236.97811,617.989055 1236.97811,617.989055 L1217.98906,599 L1199,617.989055 L1199,655.994528 L1237.00547,694 L1275.01094,694 C1275.01094,694 1294,675.010945 1294,675.010945 L1294,637.005472 L1275.01094,655.994528 L1275.01094,655.994528 L1274.95622,655.939804 Z M1414,402.972622 L1414,441 L1433,422 L1433,422 C1433,422 1452,403 1452,403 L1433,384 L1414,403 L1414,402.972622 Z M1433,383.990879 L1451.99316,402.981757 L1451.99316,440.990879 L1451.99316,440.990879 C1451.99316,440.990879 1451.99316,479 1451.99316,479 L1490.00684,479 C1490.00684,479 1490.00684,479 1490.00684,479 L1490.00684,479 L1490.00684,479 C1490.00684,479 1509,460.009121 1509,460.009121 L1509,422 L1451.99316,365 L1433,383.990879 L1433,383.990879 Z M1471,422 L1490,441 L1490,441 C1490,441 1471,460 1471,460 L1471,460 C1471,460 1452,441 1452,441 L1471,422 Z M965.989055,849.990879 L965.989055,849.990879 C965.989055,849.990879 947,868.981757 947,868.981757 L965.989055,887.972636 L984.978111,868.981757 L1022.98358,906.990879 L1022.98358,906.990879 C1022.98358,906.990879 1003.99453,925.981757 1003.99453,925.981757 L1003.99453,925.981757 C1003.99453,925.981757 965.989055,887.972636 965.989055,887.972636 L947,868.981757 L947,906.990879 L947,906.990879 C947,906.990879 985.005472,945 985.005472,945 L985.005472,945 C985.005472,945 1023.01094,945 1023.01094,945 L1042,926.009121 L1042,888 L1042,888 C1042,888 985.005472,831 985.005472,831 L966.016417,849.990879 L965.989055,849.990879 Z" id="Shape" fill="#FFFFFF" fill-rule="nonzero"></path>
    </g>
</svg>