<?xml version="1.0" encoding="UTF-8"?>
<svg width="1920px" height="1390px" viewBox="0 0 1920 1390" version="1.1" xmlns="http://www.w3.org/2000/svg" xmlns:xlink="http://www.w3.org/1999/xlink">
    <title>Naname</title>
    <defs>
        <filter id="filter-1">
            <feColorMatrix in="SourceGraphic" type="matrix" values="0 0 0 0 1.000000 0 0 0 0 1.000000 0 0 0 0 1.000000 0 0 0 1.000000 0"></feColorMatrix>
        </filter>
    </defs>
    <g id="Naname" stroke="none" stroke-width="1" fill="none" fill-rule="evenodd">
        <g filter="url(#filter-1)" id="Group">
            <g transform="translate(675.268516, 513.293176)">
                <g transform="translate(46.731484, 472.706824)" fill="#231F20" fill-rule="nonzero">
                    <polygon id="Path" points="13.5149997 370.239859 26.0724589 382.797318 24.6498273 384.247308 12.0923681 371.689849 6.89429133 371.607774 0 378.529424 25.443218 404 29.7658292 399.677389 8.61786416 378.502065 10.0404957 377.079434 17.7828943 384.821832 29.1639466 391.606691 33.4318413 387.311438 26.6196248 375.903027 18.9045845 368.215345 20.3272161 366.765355 41.5025394 387.940679 45.8251507 383.618067 20.3545744 358.147491 13.4602831 365.069141"></polygon>
                    <path d="M302.883727,75.6183382 L302.883727,80.3513239 C302.883727,80.3513239 325.974132,103.441728 325.974132,103.441728 L330.570326,98.845534 L325.126024,93.4012325 L328.792036,89.7352204 L334.236338,95.1795219 L338.832532,90.5833277 L315.742128,67.4929234 L311.009142,67.4929234 C311.009142,67.4929234 302.911086,75.5909799 302.911086,75.5909799 L302.883727,75.6183382 Z M324.195842,85.1663845 L320.52983,88.8323966 L309.668585,77.9711519 L313.334597,74.3051398 L324.195842,85.1663845 Z" id="Shape"></path>
                    <path d="M150.498002,228.004063 L150.498002,232.737049 C150.498002,232.737049 173.588407,255.827453 173.588407,255.827453 L178.184601,251.231259 L172.740299,245.786957 L176.406311,242.120945 L181.850613,247.565247 L186.446807,242.969053 L163.356403,219.878648 L158.623417,219.878648 C158.623417,219.878648 150.525361,227.976705 150.525361,227.976705 L150.498002,228.004063 Z M171.810117,237.552109 L168.144105,241.218121 L157.28286,230.356877 L160.948872,226.690865 L171.810117,237.552109 Z" id="Shape"></path>
                    <path d="M31.3526106,347.149455 L31.3526106,351.882441 C31.3526106,351.882441 54.4430148,374.972845 54.4430148,374.972845 L59.039209,370.376651 L53.5949076,364.932349 L57.2609196,361.266337 L62.7052211,366.710639 L67.3014153,362.114444 L44.211011,339.02404 L39.4780253,339.02404 C39.4780253,339.02404 31.3799688,347.122097 31.3799688,347.122097 L31.3526106,347.149455 Z M52.6647254,356.697501 L48.9987133,360.363513 L38.1374687,349.502269 L41.8034807,345.836257 L52.6647254,356.697501 Z" id="Shape"></path>
                    <path d="M345.808898,32.7205255 L345.808898,37.4535112 C345.808898,37.4535112 368.899302,60.5439155 368.899302,60.5439155 L373.495497,55.9477213 L368.051195,50.5034198 L371.717207,46.8374077 L377.161509,52.2817092 L381.757703,47.685515 L358.667299,24.5951107 L353.934313,24.5951107 C353.934313,24.5951107 345.836257,32.6931672 345.836257,32.6931672 L345.808898,32.7205255 Z M367.121013,42.2685718 L363.455001,45.9345839 L352.593756,35.0733392 L356.259768,31.4073271 L367.121013,42.2685718 Z" id="Shape"></path>
                    <polygon id="Path" points="64.6476603 313.881763 59.6410916 318.888332 63.6901199 332.129749 55.0448974 323.484526 50.4487032 328.053362 75.9192795 353.523939 80.5154737 348.927744 73.0740164 341.458929 71.4872351 336.233494 73.6485407 334.072188 84.5097853 344.933433 89.1059795 340.337238 76.0013544 327.259972 71.2683687 327.259972 69.3259294 329.202411 69.1891379 328.792036"></polygon>
                    <polygon id="Path" points="111.950159 290.681926 95.4804632 283.021602 90.8569107 287.672513 116.300129 313.143089 120.896323 308.546895 105.165301 292.843232 121.935938 300.667705 125.355726 304.087492 129.924562 299.491298 104.481344 274.04808 99.8851493 278.616916"></polygon>
                    <polygon id="Path" points="373.933229 4.56883592 385.998239 16.6338457 369.528543 8.97352204 364.904991 13.6244329 390.375567 39.0676508 394.944403 34.4988149 379.240739 18.7677931 395.984018 26.6196248 399.403806 30.0394122 404 25.443218 378.529424 -1.55513924e-13"></polygon>
                    <polygon id="Path" points="264.335884 138.296201 247.866188 130.663236 243.215277 135.286788 268.685854 160.757364 273.282048 156.16117 257.551026 140.457507 274.321663 148.28198 277.741451 151.701767 282.310286 147.132932 256.83971 121.662355 252.270874 126.258549"></polygon>
                    <polygon id="Path" points="76.2475791 311.446875 79.5305749 308.163879 95.8361211 324.442067 92.5257669 327.752421 97.1219611 332.321257 108.284147 321.159071 103.715311 316.562877 100.404957 319.873231 84.1267691 303.567685 87.409765 300.284689 82.8135708 295.688495 71.6513848 306.850681"></polygon>
                    <polygon id="Path" points="228.605946 159.06115 231.9163 155.778154 248.194488 172.056342 244.911492 175.366696 249.507686 179.935532 260.669872 168.773346 256.073678 164.20451 252.790682 167.487506 236.485136 151.18196 239.79549 147.898964 235.199296 143.30277 224.03711 154.492314"></polygon>
                    <polygon id="Path" points="195.037313 192.657141 199.797657 187.869439 220.699397 208.743821 225.268233 204.174985 204.393851 183.300603 209.181553 178.5129 204.585359 173.916706 190.441119 188.060947"></polygon>
                    <polygon id="Path" points="115.47938 263.050044 115.47938 267.78303 136.189612 288.493262 140.949956 288.493262 151.400826 278.042392 136.846211 263.487777 130.608519 269.725469 135.204713 274.294305 136.846211 272.652807 142.235796 278.042392 138.569784 281.708404 122.264238 265.402858 125.93025 261.736846 129.049096 264.855692 133.617932 260.286856 128.310422 254.951988 123.577436 254.951988"></polygon>
                    <polygon id="Path" points="279.054649 99.4747748 283.623485 104.043611 291.885691 95.8087628 308.163879 112.086951 304.525225 115.752963 296.56396 107.791698 291.967766 112.387892 302.145053 122.565179 306.878039 122.565179 314.976095 114.467123 314.976095 109.734137 294.238505 88.9965464 289.505519 88.9965464"></polygon>
                    <path d="M198.730683,212.382474 L184.805309,198.4571 L180.072323,198.4571 C180.072323,198.4571 169.621453,208.90797 169.621453,208.90797 L195.09203,234.378547 L199.688224,229.782353 L192.903366,222.997494 L194.517505,221.383355 L194.681655,221.46543 L204.010835,225.4871 L208.935329,220.562606 L198.758042,216.185278 L198.758042,212.409833 L198.730683,212.382474 Z M191.945825,214.762646 L188.279813,218.428658 L178.786483,208.935329 L182.452495,205.269317 L191.945825,214.762646 Z" id="Shape"></path>
                    <path d="M321.97982,56.5496038 L347.450396,82.0201801 L352.04659,77.4239859 L346.602289,71.9796844 L352.484323,66.0976502 L352.484323,61.3646645 C352.484323,61.3646645 337.218392,46.0987337 337.218392,46.0987337 L332.485407,46.0987337 C332.485407,46.0987337 322.034536,56.5496038 322.034536,56.5496038 L321.97982,56.5496038 Z M345.672107,63.7448365 L342.006095,67.4108485 L331.14485,56.5496038 L334.810862,52.8835918 L345.672107,63.7448365 Z" id="Shape"></path>
                </g>
                <path d="M498.114181,306.250606 L498.114181,335.447742 C498.114181,335.447742 512.684022,350.032628 512.684022,350.032628 L527.253863,350.032628 L527.253863,364.617514 C527.253863,364.617514 527.253863,364.617514 527.253863,364.617514 L541.823704,379.2024 L570.990721,379.2024 C570.990721,379.2024 585.560562,364.617514 585.560562,364.617514 L585.560562,335.420378 C585.560562,335.420378 570.990721,320.835492 570.990721,320.835492 L570.990721,320.835492 C570.990721,320.835492 556.42088,320.835492 556.42088,320.835492 L556.42088,306.250606 C556.42088,306.250606 527.253863,277.053471 527.253863,277.053471 L498.086846,306.250606 L498.114181,306.250606 Z M570.990721,350.032628 L556.42088,364.617514 L541.851039,350.032628 L556.42088,335.447742 L570.990721,350.032628 Z M541.851039,320.862856 L527.281198,335.447742 L512.711358,320.862856 L527.281198,306.27797 L541.851039,320.862856 Z M445.137912,359.308944 L445.137912,388.506079 C445.137912,388.506079 459.707753,403.090965 459.707753,403.090965 L488.87477,403.090965 C488.87477,403.090965 503.444611,388.506079 503.444611,388.506079 L518.014452,403.090965 L488.847435,432.2881 L518.014452,432.2881 C518.014452,432.2881 532.584292,417.703215 532.584292,417.703215 L532.584292,388.506079 C532.584292,388.506079 474.277594,330.139172 474.277594,330.139172 L445.110577,359.336307 L445.137912,359.308944 Z M488.87477,373.893829 L474.304929,388.478715 L459.735089,373.893829 L474.304929,359.308944 L488.87477,373.893829 Z M406.731484,426.924803 L421.301325,412.339917 L479.608023,470.706824 L479.608023,441.509689 C479.608023,441.509689 421.301325,383.142781 421.301325,383.142781 L406.731484,397.727667 L406.731484,426.924803 Z M619.647975,184.618678 L648.814992,184.618678 C648.814992,184.618678 663.384833,170.033792 663.384833,170.033792 L677.954674,184.618678 L663.384833,199.203564 L663.384833,199.203564 C663.384833,199.203564 663.384833,228.373336 663.384833,228.373336 L677.954674,242.958222 L707.121691,242.958222 C707.121691,242.958222 736.288708,213.761086 736.288708,213.761086 L707.121691,213.761086 C707.121691,213.761086 692.55185,228.345972 692.55185,228.345972 L677.98201,213.761086 L692.55185,199.1762 L692.55185,169.979065 C692.55185,169.979065 677.98201,155.394179 677.98201,155.394179 L648.814992,155.394179 C648.814992,155.394179 619.647975,184.591314 619.647975,184.591314 L619.647975,184.618678 Z M733.883181,99.4626464 L748.453022,84.8777605 L806.759721,143.244668 L806.759721,114.047532 C806.759721,114.047532 748.453022,55.6806249 748.453022,55.6806249 L733.883181,70.2655108 L733.883181,99.4626464 Z M774.257768,29.8765961 L774.257768,59.0737316 C774.257768,59.0737316 817.994626,102.855753 817.994626,102.855753 L847.161643,102.855753 C847.161643,102.855753 861.731484,88.2708671 861.731484,88.2708671 L861.731484,59.0737316 C861.731484,59.0737316 803.424785,0.706824286 803.424785,0.706824286 L774.257768,29.9039598 L774.257768,29.8765961 Z M847.134308,73.6586175 L832.564467,88.2435034 L788.827609,44.4614819 L803.39745,29.8765961 L847.134308,73.6586175 Z M686.237341,117.987914 L686.237341,147.18505 C686.237341,147.18505 729.974199,190.967071 729.974199,190.967071 L759.141217,190.967071 C759.141217,190.967071 773.711057,176.382185 773.711057,176.382185 L773.711057,147.18505 C773.711057,147.18505 715.404359,88.8181424 715.404359,88.8181424 L686.237341,118.015278 L686.237341,117.987914 Z M759.113881,161.769936 L744.54404,176.354821 L700.807182,132.5728 L715.377023,117.987914 L759.113881,161.769936 Z M550.133707,254.232092 L550.133707,283.429228 C550.133707,283.429228 564.703548,298.014114 564.703548,298.014114 L593.870565,298.014114 C593.870565,298.014114 608.440405,283.429228 608.440405,283.429228 L623.010246,298.014114 L593.843229,327.211249 L623.010246,327.211249 C623.010246,327.211249 637.580087,312.626363 637.580087,312.626363 L637.580087,283.429228 C637.580087,283.429228 579.273388,225.06232 579.273388,225.06232 L550.106371,254.259456 L550.133707,254.232092 Z M593.870565,268.816978 L579.300724,283.401864 L564.730883,268.816978 L579.300724,254.232092 L593.870565,268.816978 Z M632.276993,259.568026 L654.145422,237.677015 L639.575581,223.092129 L617.707152,244.98314 L632.276993,259.568026 Z" id="Shape" fill="#231F20" fill-rule="nonzero"></path>
                <g transform="translate(-0.268516, 424.706824)" fill="#231F20" fill-rule="nonzero">
                    <path d="M38.8154723,417 L64.929189,390.870879 L26.1137168,352.03251 L0,378.161631 L38.8154723,417 Z M9.77898598,377.614996 L25.5947203,361.789932 L37.8321106,374.034542 L22.0163763,389.859605 L9.77898598,377.614996 Z M26.4688196,394.314675 L42.2845539,378.489611 L55.1775187,391.390182 L39.3617844,407.215245 L26.4688196,394.314675 Z" id="Shape"></path>
                    <path d="M217.350255,209.962247 C213.71728,204.823884 211.996397,196.95235 211.395454,193.2899 L202.709092,201.981386 C199.513167,197.389657 196.426503,194.629154 194.377833,193.016583 L186.620202,200.77879 L181.949234,196.105067 L177.387528,200.669463 L182.058496,205.343187 L178.37089,209.032968 L182.413599,213.078063 L186.101205,209.388281 L205.795755,229.094448 C206.01428,231.035 206.178174,233.057547 206.232805,235.271416 L211.832504,240.874418 L211.941766,240.874418 C212.023713,238.961198 212.051028,237.102641 212.051028,235.32608 L216.257631,239.535164 L220.819337,234.970768 L211.368138,225.513994 C210.330145,217.724454 208.25416,211.629482 205.823071,207.010421 L207.953688,204.878548 C208.855103,207.584387 210.357461,211.137511 212.843181,214.47198 C216.312263,219.118372 222.212433,223.928754 231.690947,224.092744 L238.000852,217.779118 C227.320451,219.637675 221.037862,215.127941 217.404887,210.01691 L217.350255,209.962247 Z M200.004847,209.306286 C201.206734,211.492823 202.435936,214.280658 203.473929,217.615127 L190.662911,204.796552 L194.159308,201.298093 C195.634351,202.801337 197.846915,205.425182 199.977532,209.306286 L200.004847,209.306286 Z" id="Shape"></path>
                    <path d="M410.22573,37.1164711 C409.570156,37.7724323 408.723372,37.799764 408.259007,37.3351249 L404.707979,33.7820017 L408.204376,30.283542 L377.938687,0 L361.795166,16.1530445 L392.060854,46.4365865 L394.246102,44.2500492 C396.18551,48.1311529 397.7425,53.7341548 396.704507,58.8998492 L403.096358,52.5042276 C402.877833,47.6118503 401.129634,42.9654585 399.026333,39.4669988 L400.392113,38.1004129 L405.390869,43.1021171 C407.603432,45.3159861 411.017883,44.5780298 414.323071,41.2435603 L417,38.5650521 L412.875344,34.4379629 L410.198415,37.1164711 L410.22573,37.1164711 Z M399.272173,30.3108737 L392.08817,37.4991152 L387.635726,33.0440454 L394.81973,25.8558039 L399.272173,30.3108737 Z M391.132124,22.1660222 L383.94812,29.3542636 L379.222521,24.6258766 L386.406524,17.4376352 L391.132124,22.1660222 Z M382.254553,13.2832143 L375.070549,20.4714557 L370.754684,16.1530445 L377.938687,8.96480304 L382.254553,13.2832143 Z" id="Shape"></path>
                    <path d="M390.913599,48.2678115 L384.112014,41.4622141 C384.549063,43.4300977 384.767588,45.5073081 384.849535,47.5571869 L376.163173,38.865701 L379.331783,35.6952219 L374.906655,31.2674838 L371.738045,34.4379629 L362.068322,24.7625352 L365.236932,21.5920561 L360.811804,17.164318 L349.667038,28.3156584 L354.092166,32.7433965 L357.260776,29.5729173 L366.930499,39.248345 L363.761889,42.4188241 L368.187017,46.8465622 L371.355627,43.6760831 L384.303223,56.6313168 C384.002751,58.8178541 383.620333,60.8404011 383.26523,62.4256407 L388.209354,67.3726814 C388.946875,64.8035 391.022861,56.8226388 390.886283,48.2404798 L390.913599,48.2678115 Z" id="Path"></path>
                    <path d="M360.593279,67.9193157 L362.341478,75.6268598 C358.298769,74.451596 354.911634,72.7570296 352.316651,70.9258045 L362.805843,60.4304254 L358.735818,56.3579996 L347.126687,67.9739792 L343.712236,64.5575146 L355.321368,52.941535 L351.251343,48.8691093 L339.642211,60.4850888 L336.227761,57.0686242 L347.836892,45.4526447 L343.766868,41.3802189 L332.157736,52.9961985 L327.186296,48.021826 L322.187541,53.0235302 L327.158981,57.9979026 L315.549849,69.6138822 L319.619874,73.6863079 L331.229006,62.0703284 L334.643456,65.4867929 L323.034325,77.1027725 L327.10435,81.1751983 L338.713481,69.5592187 L342.127931,72.9756833 L330.5188,84.5916628 L334.588825,88.6640886 L339.806105,83.4437307 C340.789467,86.7508685 341.308463,90.4953136 341.035307,95.1143737 L346.635006,100.717376 C347.235949,98.5035066 347.509105,96.2349741 347.591052,93.9937733 L354.611162,101.018025 L356.632517,98.9954775 C361.795166,93.8297831 361.877113,87.2701711 360.347439,81.7491643 C364.062361,82.7331061 368.023123,83.3617356 372.011201,83.607721 L378.484999,77.1301042 C375.043233,77.4034214 371.847308,77.3214262 368.869907,76.9661139 L365.646666,62.8629482 L360.565964,67.9466474 L360.593279,67.9193157 Z M354.419953,92.3265386 L346.935478,84.8376483 C346.471112,82.2957986 345.842853,79.9999345 345.187279,78.0867143 L347.427158,75.8455135 C349.120726,77.1027725 351.005502,78.1960412 353.054173,79.1526512 C354.966265,83.0064233 356.359361,88.3907714 354.392637,92.3538704 L354.419953,92.3265386 Z" id="Shape"></path>
                    <path d="M230.543692,172.818444 L235.569763,175.223635 L241.142146,169.647965 C242.67182,171.178541 244.802437,174.075703 244.747806,178.01147 L250.019717,172.736449 C249.090987,169.292653 247.151579,166.778135 245.567274,165.220227 C244.365387,164.017631 242.617189,162.733041 241.333355,162.022416 L230.543692,172.818444 L230.543692,172.818444 Z" id="Path"></path>
                    <path d="M255.428206,188.342859 C252.041072,186.948941 249.036355,184.762404 247.233525,183.067838 L242.781082,187.522908 C244.96633,189.572786 249.145618,192.278626 251.822547,193.481222 C254.66337,194.765812 257.422246,195.476437 260.044543,195.613096 L267.392441,188.260864 C263.73215,190.556728 259.307022,189.928099 255.428206,188.315527 L255.428206,188.342859 Z" id="Path"></path>
                    <path d="M226.910717,160.49184 L220.518865,166.887461 C218.743351,165.1109 217.131731,163.580324 215.76595,162.295733 L210.931089,167.133447 C212.296869,168.390706 213.908489,169.921282 215.684004,171.725175 L209.756518,177.656158 L213.744596,181.646588 L219.562819,175.824933 C227.047295,183.997116 236.389231,195.99574 244.201494,211.547486 L249.145618,206.600446 C241.169462,191.048699 231.909472,179.159402 224.424997,170.987219 L230.92611,164.48227 L226.938032,160.49184 L226.910717,160.49184 Z" id="Path"></path>
                    <path d="M157.392506,220.67628 L152.967378,225.104018 L157.638347,229.777741 L148.815407,238.605886 L152.803485,242.596316 L161.626425,233.768172 L165.614503,237.758603 L156.791563,246.586747 L160.779641,250.577178 L169.602581,241.749033 L174.901808,247.051386 C173.836499,247.980665 173.071663,248.773284 172.798506,249.101265 C169.684528,252.326408 169.466003,257.355443 171.979038,260.252605 C175.174964,263.942387 179.490829,268.178803 184.434953,267.932818 C186.729464,267.823491 188.942028,266.757554 190.826805,264.871665 C192.165269,263.532411 193.148631,261.728518 193.230578,260.061283 C193.33984,257.710756 192.110638,255.332896 190.280493,253.610998 L184.434953,247.762011 C187.521617,246.668742 191.29117,246.47742 196.26261,247.898669 L189.597603,241.229731 C185.718787,241.393721 182.741386,242.159009 180.146404,243.470931 L174.000393,237.321295 L180.009826,231.308317 L176.021748,227.317887 L170.012315,233.330865 L166.024237,229.340434 L172.03367,223.327456 L168.045592,219.337026 L162.036159,225.350003 L157.365191,220.67628 L157.392506,220.67628 Z M186.729464,260.580586 C186.019258,261.537196 185.254422,261.564528 184.790056,261.564528 C182.386283,261.673855 178.944517,258.585371 176.8139,255.852199 C176.158326,255.004916 176.294904,253.774989 177.059741,252.791047 C177.524106,252.189749 178.261627,251.506456 178.971833,251.069149 L185.800734,257.902078 C186.866042,258.913351 187.275776,259.84263 186.75678,260.553254 L186.729464,260.580586 Z" id="Shape"></path>
                    <path d="M103.334927,293.733958 L98.0903315,288.486269 L78.2318879,308.356427 L82.5477532,312.674838 L97.0250229,298.189028 L97.3528102,298.517009 C98.0903315,308.875729 101.395519,321.202333 113.004651,329.702497 C115.572318,331.588386 118.41314,333.118962 121.472488,334.321557 L127.181449,328.609229 C123.766999,327.488628 120.65302,325.93072 117.894144,323.935505 C106.885956,315.927312 104.12708,305.70525 103.307612,293.788622 L103.334927,293.733958 Z" id="Path"></path>
                    <path d="M122.373903,301.08619 L118.522403,304.939962 C120.598389,307.181163 123.876261,309.313037 128.383336,310.542964 L132.589938,306.33388 C128.301389,305.459265 124.613782,303.518713 122.373903,301.08619 Z" id="Path"></path>
                    <path d="M116.528364,306.907846 L112.676864,310.761618 C114.3158,312.647506 117.320516,315.353346 122.100747,316.801927 L126.30735,312.592843 C121.691013,311.362915 118.331194,309.094383 116.528364,306.907846 Z" id="Path"></path>
                    <path d="M158.375868,288.868913 L147.394995,277.881563 L155.808201,269.463394 L151.65623,265.308973 L143.243024,273.727142 L133.983034,264.46169 L144.035176,254.403618 L139.746626,250.112539 L129.694484,260.17061 L122.483165,252.955037 L117.593672,257.847414 L124.804991,265.062987 L119.751605,270.119355 C117.539041,267.577505 114.56164,264.571017 113.277807,263.341089 L108.360998,268.260798 C112.676864,272.387888 121.800275,282.391296 122.428534,288.786917 L127.91897,283.293242 C127.072187,280.724061 125.597144,277.936226 123.493843,274.929737 L129.066226,269.354067 L138.326215,278.619519 L129.913009,287.037688 L134.064981,291.192109 L142.478187,282.77394 L153.459059,293.76129 L142.751343,304.475323 L147.012577,308.739071 L173.344819,282.391296 L169.083584,278.127548 L158.375868,288.841581 L158.375868,288.868913 Z" id="Path"></path>
                    <polygon id="Path" points="302.6842 86.0949073 297.002555 91.7525726 290.282916 85.056302 285.885104 89.4293767 292.604743 96.152979 287.305516 101.455332 291.266278 105.418431 296.565505 100.116078 326.039041 129.607 330.436853 125.206594 300.963317 95.7430032 306.644963 90.0580062"></polygon>
                    <polygon id="Rectangle" transform="translate(317.713283, 106.507090) rotate(-45.000000) translate(-317.713283, -106.507090) " points="315.010694 98.1878327 320.420779 98.1862375 320.415872 114.826346 315.005787 114.827942"></polygon>
                    <path d="M307.983427,97.792882 L311.998821,93.7751196 L329.863225,111.650062 C331.88458,113.672609 331.147059,116.515108 328.497445,119.166284 L328.142342,119.521597 L332.130421,123.512027 L332.512839,123.129383 C337.484279,118.155011 338.822743,111.896048 334.424931,107.495641 L316.369317,89.4293767 L316.997576,88.8007472 L313.064129,84.86498 L304.077296,93.8571148 L308.010743,97.792882 L307.983427,97.792882 Z" id="Path"></path>
                    <polygon id="Path" points="300.799424 86.6415416 294.243679 81.0932031 290.88386 84.4550043 297.685445 89.7573573"></polygon>
                    <polygon id="Rectangle" transform="translate(301.306359, 79.664206) rotate(-45.000000) translate(-301.306359, -79.664206) " points="296.716786 76.9468558 305.897536 76.9441488 305.895932 82.3815571 296.715183 82.3842642"></polygon>
                    <path d="M303.36709,109.080881 L299.351697,113.098643 L307.874165,121.626139 C311.698349,125.315921 317.707782,132.14885 319.237456,136.303271 L299.542906,116.597103 C298.013232,112.25136 295.390934,108.42492 292.276955,105.637085 L287.988406,109.928164 C287.660618,103.368552 284.573955,98.5035066 282.088235,95.6336763 L277.553845,100.170741 C280.667824,103.614538 282.170182,106.812348 281.86971,110.693452 L287.469409,116.296454 C287.933774,114.109917 288.070352,112.08737 287.988406,110.201481 C291.839906,114.055253 294.380257,118.264338 294.653413,123.512027 L300.498952,129.361015 C300.690161,128.459068 300.772108,127.557121 300.826739,126.655175 L314.948906,140.785672 L323.49869,132.230845 C320.193502,125.835223 312.818289,118.61965 311.834927,117.66304 L303.339775,109.162876 L303.36709,109.080881 Z" id="Path"></path>
                    <path d="M74.6262282,322.131612 L70.1737849,317.676542 L58.3461287,329.511175 L52.1728023,323.334207 L47.2833093,328.226585 L53.4566357,334.403552 L41.6289794,346.238186 L46.0814228,350.693256 L51.6264902,345.144917 C54.7677846,348.834699 65.7486571,362.855869 71.2117778,384.611916 L76.5110048,379.309563 C75.6095899,376.111752 74.6262282,373.105263 73.5609197,370.290096 L81.4278134,362.418562 L87.4099306,368.404208 L92.2994236,363.511831 L86.3173064,357.526185 L94.1842002,349.65465 C97.0250229,350.720587 100.029739,351.731861 103.198349,352.606476 L108.497576,347.304123 C86.7543561,341.837779 72.7414516,330.877761 69.0538451,327.707282 L74.5989126,322.158943 L74.6262282,322.131612 Z M77.467051,358.373468 L71.266409,364.577768 C65.3662387,351.185226 58.5373379,342.849053 56.3794052,340.389198 L57.9363946,338.831291 L77.467051,358.373468 L77.467051,358.373468 Z M82.356544,353.481091 L62.8258876,333.938913 L64.382877,332.381005 C66.8412813,334.540211 75.1725403,341.37314 88.5571859,347.276791 L82.356544,353.481091 L82.356544,353.481091 Z" id="Shape"></path>
                    <path d="M276.106118,146.197352 L284.710533,137.587861 L280.640508,133.515436 L272.036093,142.124926 L269.523058,139.610408 L278.318682,130.809596 L274.248657,126.73717 L265.453033,135.537983 L262.939997,133.023465 L273.893554,122.063446 L269.823529,117.991021 L263.868728,123.949335 C262.666841,121.024841 260.782065,117.963689 259.4436,115.995805 L254.799948,120.642197 C256.930565,123.949335 258.624132,127.338468 258.924604,128.896375 L253.761955,134.06207 C252.204965,133.761421 248.81783,132.066855 245.512642,129.934981 L240.86899,134.581372 C242.835713,135.920627 245.895061,137.806515 248.81783,139.009111 L242.863029,144.967425 L246.933054,149.039851 L257.886611,138.079832 L260.399646,140.59435 L251.604022,149.395163 L255.674047,153.467589 L264.469671,144.666776 L266.982707,147.181294 L258.378292,155.790785 L262.448317,159.86321 L271.052732,151.25372 L273.565767,153.768238 L261.519586,165.821525 L265.589611,169.89395 L272.609721,162.869699 C275.313966,168.035394 276.051487,172.763781 276.925586,178.694763 L282.771125,172.845776 C281.924342,167.762076 280.804402,162.979026 277.745054,157.704005 L282.552601,152.893623 C287.824512,155.927443 292.577427,157.075375 297.685445,157.922658 L303.530984,152.073671 C297.603498,151.199056 292.877899,150.4611 287.71525,147.75526 L294.73536,140.731009 L290.665335,136.658583 L278.619154,148.71187 L276.106118,146.197352 L276.106118,146.197352 Z" id="Path"></path>
                </g>
            </g>
        </g>
        <path d="M769,686 L703,686 L736,718 L769,686 L769,686 Z M812.782235,723.683805 L781.021649,692 L736.611589,736.302699 L681.386501,706.940553 L643,745.234254 L698.225088,774.596401 L666.108564,806.635283 L697.86915,838.319087 L739.650748,796.638496 L862.613499,862 L901,823.706298 L778.037249,758.344794 L812.754855,723.711118 L812.782235,723.683805 Z M652.900485,819.865662 L633.406438,755 L598,790.309387 L637.425548,921.540339 L667.391151,891.656873 L749.960606,974 L784,940.053909 L658.177275,814.576071 L652.873144,819.865662 L652.900485,819.865662 Z M890.671378,603.20235 L888.499163,601 L806.253673,684.386463 L804,686.671401 L874.352613,758 L898.301283,733.719095 L898.301283,676.815886 L876.660591,654.874978 L886.978613,644.413817 L950,708.309486 L950,663.354024 L950,663.354024 C950,663.354024 890.698531,603.229879 890.698531,603.229879 L890.698531,603.229879 L890.671378,603.20235 Z M867,712.972239 L844,689.486119 L858.51773,674.661548 L867,666 L867,713 L867,712.972239 Z M443.033089,966 L384,1025.03309 L526.966911,1168 L586,1108.96691 L443.033089,966 Z M464.309091,1061 L433,1029.69091 L446.690909,1016 L478,1047.30909 L464.309091,1061 Z M522.309091,1119 L491,1087.69091 L504.690909,1074 L536,1105.30909 L522.309091,1119 Z M569,1076 L642,1076 L605.5,1039 L569,1076 Z M667.165349,955.368618 L639.327822,927.447541 L615.287563,951.559953 L603.540618,939.777752 L627.580877,915.66534 L599.74335,887.744262 L557.071891,930.543794 L546.281093,919.720609 L588.952552,876.921077 L561.115025,849 L518.443566,891.799532 L508.33573,881.661358 L477.793674,912.295082 L487.90151,922.433255 L449,961.451522 L476.837527,989.3726 L515.739037,950.354333 L526.529835,961.177518 L487.628325,1000.19578 L515.465852,1028.11686 L568.873472,974.548946 L580.620417,986.331148 L527.212797,1039.89906 L555.050324,1067.82014 L608.457944,1014.25222 L677,1083 L677,1013.48501 L677,1013.48501 C677,1013.48501 643.12509,979.508431 643.12509,979.508431 L667.165349,955.396019 L667.165349,955.368618 Z M1084.5,531 C1054.95727,531 1031,554.957267 1031,584.5 C1031,614.042733 1054.95727,638 1084.5,638 C1114.04273,638 1138,614.042733 1138,584.5 C1138,554.957267 1114.04273,531 1084.5,531 Z M1084.5,603 C1074.28277,603 1066,594.717231 1066,584.5 C1066,574.282769 1074.28277,566 1084.5,566 C1094.71723,566 1103,574.282769 1103,584.5 C1103,594.717231 1094.71723,603 1084.5,603 Z M845,581.158794 L912.285397,581.158794 L971.177263,522.553287 L971.177263,754 L1018,707.404937 L1018,409 L845,581.158794 L845,581.158794 Z M1474.09653,125.211257 L1440.30133,158.846437 L1469.05329,187.462256 L1425.96646,230.345065 L1425.96646,0 L1376,49.7298738 L1376,348 L1537,187.789606 L1474.12394,125.211257 L1474.09653,125.211257 Z M1129.3788,296 L1091,334.227729 L1172.58927,415.495834 L1172.58927,552 L1220,504.775903 L1220,386.264473 L1220,386.264473 C1220,386.264473 1129.3788,296 1129.3788,296 L1129.3788,296 Z M1124,434.746184 L1058.50213,369 L1022,405.640509 L1123.9729,508 L1123.9729,434.746184 L1124,434.746184 Z M1288.539,138 L1136,289.869813 L1205.02465,289.869813 L1241.5365,253.518141 L1241.5365,483 L1288.56639,436.176429 L1288.56639,359.082523 L1366,359.082523 L1366,307.568414 L1288.56639,307.568414 L1288.56639,138 L1288.539,138 Z M1320,105 L1288,138 L1320,171 L1320,105.027431 L1320,105 Z M1354,72 L1322,105 L1354,138 L1354,72.0274314 L1354,72 Z" id="Shape" fill="#FFFFFF" fill-rule="nonzero"></path>
        <path d="M1537,393.996091 L1537,393.996091 C1537,393.996091 1442,299 1442,299 L1442,337.003909 L1442,337.003909 C1442,337.003909 1537,432 1537,432 L1537,393.996091 L1537,393.996091 Z M728.993158,1087.02736 L710,1106.01642 L767.006842,1163.01094 L786,1182 L786,1143.99453 C786,1143.99453 728.993158,1087 728.993158,1087 L728.993158,1087.02736 Z M691,1049 L691,1087 C691,1087 710,1068.01368 710,1068.01368 L691,1049.02736 L691,1049 Z M1108.01095,708.015635 L1089.01642,727.003909 L1051,689 L1051,727.003909 L1069.99453,745.992183 L1069.99453,783.996091 L1088.98905,765.007817 L1146,822 L1146,783.996091 L1107.98358,745.992183 L1107.98358,707.988274 L1108.01095,708.015635 Z M1033.98358,821 L1033.98358,782.986316 L1014.98905,801.979474 L995.994526,782.986316 L995.994526,782.986316 C995.994526,782.986316 1014.98905,763.993158 1014.98905,763.993158 L995.994526,745 L977,763.993158 L977,802.006842 L1053.00547,878.006842 L1072,897 L1072,858.986316 C1072,858.986316 1033.98358,820.972632 1033.98358,820.972632 L1033.98358,821 Z M778.018243,1076.99453 L797.009121,1058.00547 L797.009121,1058.00547 C797.009121,1058.00547 797.009121,1020 797.009121,1020 L759,1058.00547 L759,1096.01094 L777.990879,1115 L816,1076.99453 L777.990879,1076.99453 C777.990879,1076.99453 777.990879,1076.99453 777.990879,1076.99453 L778.018243,1076.99453 Z M816.018243,1076.99316 L816.018243,1076.99316 C816.018243,1076.99316 835.009121,1095.98632 835.009121,1095.98632 L835.009121,1095.98632 C835.009121,1095.98632 835.009121,1095.98632 835.009121,1095.98632 L797,1134 L835.009121,1134 L854,1115.00684 L854,1076.99316 L835.009121,1058 L816.018243,1076.99316 Z M881.986314,935.0152 L881.986314,973.01824 L862.989735,954.0304 L843.993157,973.01824 L843.993157,1011.02128 L824.996578,992.03344 L806,1011.02128 L863.017108,1068.01216 L882.013686,1087 L882.013686,1048.99696 C882.013686,1048.99696 843.993157,1010.99392 843.993157,1010.99392 L862.989735,992.00608 L901.010265,1030.00912 L920.006843,1048.99696 L920.006843,1010.99392 L881.986314,972.99088 L900.982892,954.00304 L939.003422,992.00608 L958,1010.99392 L958,972.99088 L900.982892,916 L881.986314,934.98784 L881.986314,935.0152 Z M1152.00391,664.988274 L1152.00391,702.992183 L1095,646 L1095,684.003909 L1190.01564,779 L1190.01564,740.996091 L1152.00391,702.992183 L1170.99609,684.003909 L1228,740.996091 L1228,702.992183 L1170.99609,646 L1152.00391,664.988274 L1152.00391,664.988274 Z M674,1106.01368 L693,1125 L693,1087 C693,1087 674,1105.98632 674,1105.98632 L674,1106.01368 Z M691.013684,1125.02736 L653,1163.02736 L710.006842,1220.01368 L729,1239 L729,1201 L690.986316,1163 L690.986316,1125 L691.013684,1125.02736 Z M588.009121,1153.02736 L550,1191.02736 L568.990879,1210.01368 L607,1172.01368 L645.009121,1210.01368 L664,1229 L664,1191 L625.990879,1153 L587.981757,1153 L588.009121,1153.02736 Z M607.016422,1210 L569,1210 L587.994526,1228.99453 L645.005474,1286.00547 L664,1305 L664,1266.98358 L645.005474,1247.98905 L664,1228.99453 L625.983578,1228.99453 L606.989052,1210 L607.016422,1210 Z M1360,571 L1379,590 L1398,571 L1379,552 L1360,571 Z M1247.02736,533.027362 L1266.01642,552.016417 L1323.01094,609.010945 L1342,628 L1342,589.994528 L1323.01094,571.005472 L1285.00547,533 L1247,533 L1247.02736,533.027362 Z M1341.04105,552.032844 L1341.04105,514.016422 L1303.02737,476 L1265.01368,476 L1227,514.016422 L1245.99316,533.010948 L1284.00684,494.994526 L1322.02053,533.010948 L1341.01368,552.005474 L1341.01368,552.005474 C1341.01368,552.005474 1360.00684,571 1360.00684,571 L1379,552.005474 L1340.98632,552.005474 L1341.04105,552.032844 Z M1322.01368,571 L1341,552 L1303,552 L1321.98632,571 L1322.01368,571 Z M1426.98358,502.967166 L1407.99453,521.956221 L1407.99453,521.956221 C1407.99453,521.956221 1389.00547,502.967166 1389.00547,502.967166 L1407.99453,483.978111 L1426.98358,464.989055 L1407.99453,446 L1369.98906,446 L1351,464.989055 L1351,502.994528 L1389.00547,541 L1427.01094,541 C1427.01094,541 1427.01094,541 1427.01094,541 L1446,522.010945 L1446,484.005472 L1427.01094,502.994528 L1427.01094,502.994528 L1426.98358,502.967166 Z M1389,502.972642 L1370,483.986321 L1370,483.986321 C1370,483.986321 1389,465 1389,465 L1389,503 L1389,502.972642 Z M1256.00912,637 L1275,618 L1256.00912,599 L1218,599 L1236.99088,618 L1255.98176,637 L1256.00912,637 Z M1274.95622,655.939804 L1255.96717,674.928859 L1255.96717,674.928859 C1255.96717,674.928859 1236.97811,655.939804 1236.97811,655.939804 L1255.96717,636.950749 L1236.97811,617.961694 L1236.97811,655.967166 L1217.98906,636.978111 L1217.98906,636.978111 C1217.98906,636.978111 1236.97811,617.989055 1236.97811,617.989055 L1217.98906,599 L1199,617.989055 L1199,655.994528 L1237.00547,694 L1275.01094,694 C1275.01094,694 1294,675.010945 1294,675.010945 L1294,637.005472 L1275.01094,655.994528 L1275.01094,655.994528 L1274.95622,655.939804 Z M1414,402.972622 L1414,441 L1433,422 L1433,422 C1433,422 1452,403 1452,403 L1433,384 L1414,403 L1414,402.972622 Z M1433,383.990879 L1451.99316,402.981757 L1451.99316,440.990879 L1451.99316,440.990879 C1451.99316,440.990879 1451.99316,479 1451.99316,479 L1490.00684,479 C1490.00684,479 1490.00684,479 1490.00684,479 L1490.00684,479 L1490.00684,479 C1490.00684,479 1509,460.009121 1509,460.009121 L1509,422 L1451.99316,365 L1433,383.990879 L1433,383.990879 Z M1471,422 L1490,441 L1490,441 C1490,441 1471,460 1471,460 L1471,460 C1471,460 1452,441 1452,441 L1471,422 Z M965.989055,849.990879 L965.989055,849.990879 C965.989055,849.990879 947,868.981757 947,868.981757 L965.989055,887.972636 L984.978111,868.981757 L1022.98358,906.990879 L1022.98358,906.990879 C1022.98358,906.990879 1003.99453,925.981757 1003.99453,925.981757 L1003.99453,925.981757 C1003.99453,925.981757 965.989055,887.972636 965.989055,887.972636 L947,868.981757 L947,906.990879 L947,906.990879 C947,906.990879 985.005472,945 985.005472,945 L985.005472,945 C985.005472,945 1023.01094,945 1023.01094,945 L1042,926.009121 L1042,888 L1042,888 C1042,888 985.005472,831 985.005472,831 L966.016417,849.990879 L965.989055,849.990879 Z" id="Shape" fill="#FFFFFF" fill-rule="nonzero"></path>
    </g>
</svg>